<svg xmlns="http://www.w3.org/2000/svg" viewBox="0 0 600 800">
  <rect width="600" height="800" fill="#140b1d"/>
  <rect x="24" y="24" width="552" height="752" rx="28" fill="url(#bg6)"/>
  <rect x="52" y="52" width="496" height="48" rx="16" fill="#17341a"/>
  <text x="300" y="84" text-anchor="middle" font-size="26" font-family="Trebuchet MS, sans-serif" fill="#eef3ff">XBOX 360</text>
  <path d="M126 404c66-104 146-190 240-258 34 26 64 56 92 92-88 44-170 98-248 166H126Z" fill="#ffae4f"/>
  <path d="M176 448c72-62 154-118 248-168l46 62c-92 28-186 64-290 106h-4Z" fill="#f15746"/>
  <path d="M118 520h364l-68 118H186l-68-118Z" fill="#1a2248"/>
  <text x="300" y="622" text-anchor="middle" font-size="46" font-family="Georgia, serif" fill="#ffffff">Forza</text>
  <text x="300" y="676" text-anchor="middle" font-size="62" font-family="Georgia, serif" fill="#ffffff">Horizon</text>
  <defs>
    <linearGradient id="bg6" x1="0" y1="0" x2="0" y2="1">
      <stop offset="0" stop-color="#58214c"/>
      <stop offset=".48" stop-color="#25133e"/>
      <stop offset="1" stop-color="#10172e"/>
    </linearGradient>
  </defs>
</svg>
