<svg xmlns="http://www.w3.org/2000/svg" viewBox="0 0 600 420">
  <rect width="600" height="420" rx="36" fill="#eef3f1"/>
  <rect x="108" y="150" width="384" height="112" rx="28" fill="#243559"/>
  <g fill="#f7c873">
    <rect x="134" y="170" width="42" height="24" rx="8"/>
    <rect x="184" y="170" width="42" height="24" rx="8"/>
    <rect x="234" y="170" width="42" height="24" rx="8"/>
    <rect x="284" y="170" width="42" height="24" rx="8"/>
    <rect x="334" y="170" width="42" height="24" rx="8"/>
    <rect x="384" y="170" width="82" height="24" rx="8"/>
    <rect x="134" y="206" width="62" height="24" rx="8"/>
    <rect x="204" y="206" width="42" height="24" rx="8"/>
    <rect x="254" y="206" width="132" height="24" rx="8"/>
    <rect x="394" y="206" width="72" height="24" rx="8"/>
  </g>
  <text x="300" y="356" text-anchor="middle" font-size="42" font-family="Trebuchet MS, sans-serif" fill="#243559">TERRA</text>
</svg>
